<svg width="167" height="53" viewBox="0 0 167 53" fill="none" xmlns="http://www.w3.org/2000/svg">
<path d="M25.9996 45.9286C25.9203 45.6281 25.6738 44.2558 25.5828 44.1598C24.9584 43.5017 23.7926 43.3695 22.9836 42.69C23.3124 42.5953 23.511 42.5822 23.7152 42.3139L23.5897 42.0574C22.534 41.7043 23.215 42.4822 22.5547 42.6586C20.2026 43.2889 17.411 41.0261 16.5274 39.0611L16.7857 38.5663C17.973 39.3213 18.1804 39.5002 19.5666 39.6839C19.7897 40.6362 19.8678 41.417 20.562 42.108L20.842 42.1895L21.1456 42.0079C21.2638 41.2027 20.4688 41.0388 20.7378 40.5996C22.4942 40.635 26.1599 42.3906 27.8943 43.2364C28.0479 43.3112 28.2604 43.998 28.3252 44.1981L28.5678 44.3545L28.7611 44.279L28.786 43.6911C29.222 43.5467 36.1967 45.413 37.1821 45.5064C35.7194 45.3679 42.0428 47.0085 41.0529 46.57C41.6631 46.5263 43.7583 46.2296 44.1101 46.5939C43.6199 46.9444 43.4053 46.8368 42.7381 46.7922C42.3736 47.0382 42.4904 46.9466 42.3295 47.4725C45.5632 47.2144 45.5319 46.6625 48.57 47.9359C49.5531 47.7463 50.1783 47.6959 51.1642 47.9339L51.3862 48.1347C51.2128 48.5367 51.3381 48.3599 50.9481 48.6448C50.6324 48.6684 50.3546 48.6836 50.0381 48.6916C49.7628 49.0907 50.0351 49.4227 50.3068 49.7546C50.6822 49.8372 51.9524 49.3158 52.2281 49.0505C52.0555 48.3577 51.7335 48.8164 51.7401 48.1252C52.5028 47.663 53.4936 48.3962 54.3158 48.4679C54.9727 48.5251 55.6992 48.2519 56.3652 48.2072C59.1808 48.1693 59.1416 48.4999 61.6161 47.132C61.6991 47.5802 61.8231 48.6256 62.1493 48.8666C62.6295 48.6285 62.883 47.718 63.3104 47.6624C66.9124 47.1934 70.4476 46.7106 73.984 45.8154C74.9502 45.5708 75.9047 45.4545 76.9072 45.4786C75.0965 46.5865 73.4464 46.7437 71.9695 47.5674C72.2906 47.5735 73.055 47.5754 73.3282 47.5156C74.0048 47.3674 77.7943 46.3689 78.1305 46.0617L78.0865 45.8801C78.035 45.6621 78.028 45.5916 78.0189 45.3618C78.442 45.0058 80.0119 44.8995 80.5445 45.0782C80.6232 45.474 80.4793 45.6156 80.3054 46.0433C80.7188 46.285 81.2044 46.2109 81.5195 45.8389C81.9988 45.273 81.4954 44.5695 82.4271 44.6116C82.688 44.8309 82.6945 45.043 82.7754 45.3797L82.9785 45.5309C83.415 45.4479 83.3116 45.5273 83.6184 45.2705C84.3992 43.0892 85.2644 43.173 86.9395 44.6282L87.1764 44.4711C87.1644 43.9344 86.4938 43.602 86.7541 43.4192C87.3283 43.0157 89.5307 42.5152 90.129 42.8201L90.1893 43.0055C89.6752 43.4648 89.2542 43.5459 89.0104 44.0083C89.2511 44.343 89.152 44.2345 89.5819 44.4086C90.3124 44.3192 90.7766 43.5708 90.893 42.895C90.8104 42.6173 90.7778 42.5304 90.6561 42.2673C91.1076 41.969 93.4315 41.1585 94.0123 41.0507C94.784 41.2893 94.4469 41.4357 95.113 41.3588C95.4111 41.149 95.3422 41.2852 95.405 40.9871C94.8565 40.2163 96.0432 39.5241 96.6428 39.0207C97.0532 39.0701 97.1343 39.0832 97.5408 39.0429L97.7107 38.8401C97.617 37.9987 94.9538 35.1954 94.3569 34.0102C92.0201 29.3747 91.5054 24.6523 91.7651 19.5298C91.7958 18.9183 91.8067 17.1936 91.9445 16.7107C92.2735 16.491 92.365 16.4862 92.7371 16.3892L92.8661 16.19C92.6701 15.9329 92.2799 15.5027 92.387 15.1442C92.6709 14.1935 93.1939 13.288 93.5844 12.3739C94.0927 11.4733 94.5334 10.0507 95.104 9.21869C97.3162 5.99356 100.173 3.44535 103.432 1.31304C104.3 0.744908 104.85 0.713791 105.782 1.11171L106.243 1.30701L106.564 1.11557C106.54 0.48561 106.098 0.766976 106.28 0.237079C106.928 -0.0640403 112.489 -0.0651999 113.432 0.159492C116.633 0.923962 121.404 2.85387 122.846 6.1187C123.488 7.57091 123.49 8.96283 124.439 10.1619C124.741 10.522 124.118 13.3033 123.899 14.0282L123.806 14.0881C123.582 14.7832 123.682 14.7554 123.895 15.5596C123.298 16.2846 120.591 19.5978 120.546 20.3495L120.728 20.431C120.888 20.362 121.866 19.8785 121.878 19.8795C121.815 21.0722 120.291 21.355 119.824 21.978C119.245 22.7518 118.757 24.6042 117.952 25.2073C117.395 25.624 116.14 24.9995 117.104 26.606C116.87 27.4463 115.853 26.9667 115.551 27.5164C115.666 27.8642 115.827 28.0756 115.64 28.3347C114.155 30.395 112.371 32.0692 110.31 33.5409C109.809 33.8981 110.064 34.3713 109.592 34.7364C107.451 36.3918 105.402 37.9258 103.008 39.1949C104.466 39.8477 106.436 40.5647 107.49 41.6889C109.306 41.767 109.018 42.7138 110.763 42.2996L112.197 43.9411C114.764 42.8626 117.297 44.3724 119.972 44.5039C121.103 44.5588 121.965 43.9298 122.805 44.7371C123.63 44.686 124.254 44.1676 125.068 44.1283C126.097 43.9921 126.309 45.4272 127.176 44.3282C127.34 44.1197 128.795 44.8422 128.854 44.8197C132.839 43.2459 137.224 43.276 141.285 41.7816C142.243 41.4287 143.379 41.3192 144.339 40.9183C147.245 39.7892 150.525 38.0646 153.443 37.0814C150.509 35.0094 148.067 33.0121 144.974 31.1332C151.199 31.3964 157.019 31.3214 163.18 30.3674C164.104 30.2243 165.114 30.1114 166.046 30.0659C162.977 34.7914 157.557 43.0019 155.978 48.3853C155.68 46.6978 155.619 45.093 155.398 43.4105C155.194 41.8471 154.774 40.1646 154.342 38.6455C151.662 40.929 147.807 42.5709 144.561 43.8562C142.841 44.4846 140.92 44.7717 139.192 45.3115C137.277 45.9112 135.302 46.2312 133.398 46.7352C130.7 47.4492 128.223 47.6588 125.44 47.8008C123.99 47.8749 122.515 48.1599 121.033 47.9788C118.692 47.7974 116.403 46.8665 114.049 46.9476C112.548 46.9997 112.162 46.182 111.005 45.5523C110.781 45.4299 110.476 46.1171 110.112 45.8344C107.186 44.6126 102.611 43.0722 100.372 40.9407C98.8091 41.7906 87.3812 46.6572 86.6003 46.4917C86.5559 45.9091 86.7114 45.686 86.4238 45.4202C84.7885 45.641 85.0538 47.0937 84.6662 47.2355C82.9942 47.8477 80.9733 48.0617 79.199 48.5232C78.4682 48.7133 76.094 49.7032 75.5922 49.7117C75.3633 49.4831 75.3305 49.2904 75.2272 48.9845L74.9683 48.8607L74.6968 48.9673C74.4816 49.583 74.6118 49.6913 74.2079 50.0561C71.5699 50.718 68.1766 50.8572 65.481 51.0334C64.4193 51.1027 62.6823 51.9518 61.5051 51.8808C61.3314 51.8703 60.7336 51.9159 60.514 51.9236C59.8353 52.0343 58.1492 52.4019 57.7022 51.8649L57.7984 51.3708C56.8986 51.3992 56.6567 51.7063 55.7707 51.7783C55.1683 51.75 54.6344 51.7066 54.0323 51.7835C52.5684 51.2319 45.8211 50.8057 44.0199 50.6861C42.0547 50.5561 41.8344 50.0696 40.3079 49.7496C37.0714 49.0712 34.292 48.9205 31.2877 47.2374L31.2861 47.1251C32.1139 47.0354 33.1646 47.4789 33.6619 47.3386L33.6111 47.1526C32.9387 46.5544 31.0825 45.4483 30.1823 45.7398C30.0842 45.9682 29.9005 46.4722 29.6961 46.5387C28.7851 46.8387 26.8147 46.2011 25.9996 45.9286Z" fill="#58CDDE"/>
<path d="M55.7707 51.7783C55.1683 51.75 54.6344 51.7066 54.0323 51.7835C54.3303 51.1971 54.5047 50.7294 55.2168 50.6077C55.7596 50.9236 55.7214 51.1741 55.7707 51.7783Z" fill="#9DD1D9"/>
<path d="M100.561 37.0319C100.219 35.9765 99.1325 34.6649 98.2588 34.0377C98.1228 31.8874 96.6963 28.6969 96.0629 26.5325C95.0119 22.936 95.2654 17.9195 96.3805 14.3939C96.7976 13.0747 99.8253 7.85626 100.949 7.33834C101.292 7.37982 101.524 7.44753 101.838 7.3139C101.888 6.97172 101.88 6.85139 102.078 6.56185C102.665 6.21476 104.509 4.90121 104.901 4.90876C105.319 3.95859 107.391 3.11966 108.364 2.86814C109.189 2.65566 109.552 2.66625 110.375 2.88795C111.286 3.18147 111.357 3.50246 111.824 3.63651C113.439 4.1048 116.581 4.86091 117.905 5.66564C119.525 6.65271 121.088 12.1787 120.164 13.6191L119.607 13.5925C119.291 14.2683 119.873 15.7221 119.102 16.3518C118.868 16.5425 118.77 16.7964 118.676 17.0723C118.699 17.2042 118.825 17.915 118.778 18.0154C116.713 22.1862 113.167 26.7801 110.14 30.3127C108.729 31.9598 102.463 35.9739 100.561 37.0319Z" fill="#DCDCDB"/>
<path d="M110.375 2.88795C110.296 3.22129 110.258 3.31469 110.136 3.62287C109.346 3.85752 105.488 4.85198 104.901 4.90876C105.319 3.95859 107.391 3.11966 108.364 2.86814C109.189 2.65566 109.552 2.66625 110.375 2.88795Z" fill="#9DD1D9"/>
<path d="M68.4356 48.8864C68.2417 48.5813 68.3142 48.751 68.3063 48.3218C68.6808 47.608 69.3402 47.4603 70.0855 47.6145C70.3754 48.026 70.4607 48.0853 70.2436 48.5052C69.7789 48.8041 69.0187 48.8191 68.4356 48.8864Z" fill="#DCDCDB"/>
<path d="M15.729 39.1355C15.9619 39.5338 16.5015 40.2258 16.5198 40.5931C16.0969 40.5385 16.1248 40.3855 15.7914 40.2247C14.4347 39.5705 13.3334 39.3321 12.0116 38.5101C10.4876 37.5005 8.93625 36.451 7.41849 35.4382C5.70633 34.2957 6.04995 33.4694 5.157 32.1139C6.38842 32.8361 8.31007 33.3073 8.97468 34.0443L8.99538 34.2643L8.75988 34.4384C8.24021 34.3257 7.01566 33.7579 6.47182 33.5233C7.19421 34.3191 7.75335 34.7549 8.15476 35.7727C8.85096 35.5113 9.38126 35.3473 9.99538 34.9234L11.7074 36.0585C11.72 36.6198 11.6144 37.9251 12.0377 38.2451C12.614 37.6027 12.3762 36.9058 13.113 36.6614C13.6815 36.8226 14.5937 37.3291 15.1153 37.648C15.7723 37.9327 16.243 38.0945 16.7857 38.5663L16.5274 39.0611C16.2133 38.9514 16.1822 38.9485 15.8492 38.9073L15.729 39.1355Z" fill="#58CDDE"/>
<path d="M15.729 39.1355C15.3356 39.063 14.9197 39.0448 14.6589 38.7665C14.7322 38.077 15.0654 38.1819 15.1153 37.648C15.7723 37.9327 16.243 38.0945 16.7857 38.5663L16.5274 39.0611C16.2133 38.9514 16.1822 38.9485 15.8492 38.9073L15.729 39.1355Z" fill="#9DD1D9"/>
<path d="M5.43011 33.9087C4.6835 33.5 1.98143 31.3639 1.61664 30.6972C1.85405 30.08 2.03478 29.934 1.54067 29.4984L1.36409 29.5477L1.09612 30.1155L0.89852 30.1805C0.409207 29.8364 -0.194663 29.1633 0.0605375 28.5434C0.519282 28.3879 0.486678 28.4826 1.05945 28.6442C1.72654 28.896 3.02178 29.3213 3.15331 30.0533L2.80225 30.5215L2.84678 30.7311L3.07454 30.8466C3.90916 30.4281 4.1596 30.6016 4.78 31.2871L4.74943 31.4602L4.10106 31.667C3.70164 32.3826 5.33441 32.9102 5.43011 33.9087Z" fill="#58CDDE"/>
</svg>
